<?xml version='1.0' encoding='utf-8'?>
<!DOCTYPE svg PUBLIC '-//W3C//DTD SVG 1.1//EN' 'http://www.w3.org/Graphics/SVG/1.1/DTD/svg11.dtd'>
<svg version="1.1" xmlns="http://www.w3.org/2000/svg" viewBox="0 0 512 512" xmlns:xlink="http://www.w3.org/1999/xlink" enable-background="new 0 0 512 512">
  <g>
    <g>
      <path d="m321.7,239.2l-187.6-130.6c-10-7.4-30.6-3.7-32.1,16.8v261.2c1.1,24.2 24.7,22.8 32.1,16.8l187.6-130.6c6.7-4.1 16.2-20 0-33.6zm-178.9,108.3v-183l131.5,91.5-131.5,91.5z"/>
      <path d="M440.8,11H71.2C38,11,11,38,11,71.2v369.5C11,474,38,501,71.2,501h369.5c33.2,0,60.2-27,60.2-60.2V71.2    C501,38,474,11,440.8,11z M460.2,440.8c0,10.7-8.7,19.4-19.4,19.4H71.2c-10.7,0-19.4-8.7-19.4-19.4V71.2    c0-10.7,8.7-19.4,19.4-19.4h369.5c10.7,0,19.4,8.7,19.4,19.4V440.8z"/>
      <path d="m389.6,105c-11.3,0-20.4,9.1-20.4,20.4v261.2c0,11.3 9.1,20.4 20.4,20.4 11.3,0 20.4-9.1 20.4-20.4v-261.2c0-11.3-9.1-20.4-20.4-20.4z"/>
    </g>
  </g>
</svg>
